<?xml version="1.0"?>
<svg xmlns="http://www.w3.org/2000/svg" viewBox="0 0 64 64" width="512" height="512"><g id="Globe-4" data-name="Globe"><path d="M52.634,28.093a16.529,16.529,0,0,1-2.548,5.013A14.781,14.781,0,0,0,55.178,30,15.121,15.121,0,0,0,52.634,28.093Z"/><path d="M36,29.02v1.966a14.861,14.861,0,0,0,3.926,2.137A16.523,16.523,0,0,1,37.368,28.1,15.061,15.061,0,0,0,36,29.02Z"/><path d="M45,34c2.4,0,4.554-2.741,5.822-6.806a14.789,14.789,0,0,0-11.643,0C40.446,31.259,42.605,34,45,34Z"/><path d="M38.667,25.242a16.767,16.767,0,0,1,12.666,0A28.864,28.864,0,0,0,51.976,20H38.024A28.864,28.864,0,0,0,38.667,25.242Z"/><path d="M51.337,12.775A16.99,16.99,0,0,1,45,14a16.99,16.99,0,0,1-6.337-1.225A28.869,28.869,0,0,0,38.024,18H51.976A28.869,28.869,0,0,0,51.337,12.775Z"/><path d="M55.17,8.006a15,15,0,0,0-5.072-3.1,16.566,16.566,0,0,1,2.537,5A15.007,15.007,0,0,0,55.17,8.006Z"/><path d="M53.974,18h5.975a14.924,14.924,0,0,0-3.395-8.554,16.934,16.934,0,0,1-3.355,2.46A30.343,30.343,0,0,1,53.974,18Z"/><path d="M39.9,4.911a15,15,0,0,0-5.072,3.1,15.007,15.007,0,0,0,2.535,1.9A16.566,16.566,0,0,1,39.9,4.911Z"/><path d="M59.953,20H53.974a30.343,30.343,0,0,1-.781,6.119,17.211,17.211,0,0,1,3.36,2.429A14.9,14.9,0,0,0,59.953,20Z"/><path d="M17.575,51.2a6.868,6.868,0,0,1-.681-2.582l-.281-4.294-3.62-1.448,4.147,16.38a1,1,0,0,0,1.224.7l1.5-.408A.976.976,0,0,0,20.52,59a.994.994,0,0,0-.016-.857Z"/><polygon points="30 26.477 12 33.677 12 40.323 30 47.523 30 26.477"/><path d="M4,37a3,3,0,0,0,3,3h3V34H7A3,3,0,0,0,4,37Z"/><path d="M31,24a5,5,0,0,1,4.524,2.9c.419-.282.848-.537,1.285-.778A30.329,30.329,0,0,1,36.026,20H30.05a14.715,14.715,0,0,0,.838,4.021A1.1,1.1,0,0,1,31,24Z"/><path d="M36.8,11.906a16.934,16.934,0,0,1-3.355-2.46A14.924,14.924,0,0,0,30.051,18h5.975A30.343,30.343,0,0,1,36.8,11.906Z"/><path d="M45,12a14.987,14.987,0,0,0,5.829-1.169C49.562,6.753,47.4,4,45,4s-4.562,2.753-5.829,6.831A14.987,14.987,0,0,0,45,12Z"/><path d="M32,47.815A3,3,0,0,0,34,45V29a3,3,0,0,0-2-2.815Z"/><path d="M30.834,54.971a22.958,22.958,0,0,1-7.48-1.651L22.6,55.173a24.961,24.961,0,0,0,8.13,1.8c.424.021.845.032,1.266.032A25.093,25.093,0,0,0,56.805,35.124l-1.985-.248A23.077,23.077,0,0,1,30.834,54.971Z"/><path d="M29.124,9.176l-.248-1.984A25.1,25.1,0,0,0,7.091,29.868l1.992.17A23.088,23.088,0,0,1,29.124,9.176Z"/></g></svg>
