<svg height="512pt" viewBox="-126 0 512 512" width="512pt" xmlns="http://www.w3.org/2000/svg"><path d="m250 0h-240c-5.523438 0-10 4.476562-10 10v492c0 5.523438 4.476562 10 10 10h240c5.523438 0 10-4.476562 10-10v-492c0-5.523438-4.476562-10-10-10zm-10 492h-220v-472h220zm0 0"/><path d="m126.710938 471.925781c1.113281.050781 2.226562.074219 3.335937.074219 18.097656 0 35.140625-6.808594 48.296875-19.371094 13.964844-13.34375 21.65625-31.320312 21.65625-50.628906 0-18.335938-7.238281-35.9375-20-48.976562v-13.023438h30c5.523438 0 10-4.476562 10-10s-4.476562-10-10-10h-30v-20h10c5.523438 0 10-4.476562 10-10s-4.476562-10-10-10h-10v-20h30c5.523438 0 10-4.476562 10-10s-4.476562-10-10-10h-30v-20h10c5.523438 0 10-4.476562 10-10s-4.476562-10-10-10h-10v-20h30c5.523438 0 10-4.476562 10-10s-4.476562-10-10-10h-30v-20h10c5.523438 0 10-4.476562 10-10s-4.476562-10-10-10h-10v-20h30c5.523438 0 10-4.476562 10-10s-4.476562-10-10-10h-31.007812c-4.644532-22.796875-24.847657-40-48.992188-40-27.570312 0-50 22.429688-50 50v263.019531c-13.476562 13.746094-20.703125 32.367188-19.945312 51.773438 1.40625 35.992187 30.683593 65.480469 66.65625 67.132812zm-30.039063-107.1875c2.117187-1.894531 3.328125-4.605469 3.328125-7.449219v-267.289062c0-16.542969 13.457031-30 30-30s30 13.457031 30 30v267.289062c0 2.84375 1.210938 5.554688 3.328125 7.449219 10.597656 9.488281 16.671875 23.066407 16.671875 37.261719 0 13.789062-5.496094 26.636719-15.472656 36.164062-9.96875 9.519532-23.0625 14.414063-36.898438 13.78125-25.683594-1.179687-46.585937-22.234374-47.589844-47.933593-.585937-14.972657 5.476563-29.285157 16.632813-39.273438zm0 0"/><path d="m130 432c16.542969 0 30-13.457031 30-30 0-13.035156-8.359375-24.152344-20-28.28125v-111.71875c0-5.511719-4.488281-10-10-10s-10 4.488281-10 10v111.71875c-11.640625 4.128906-20 15.246094-20 28.28125 0 16.542969 13.457031 30 30 30zm0-40c5.515625 0 10 4.484375 10 10s-4.484375 10-10 10-10-4.484375-10-10 4.484375-10 10-10zm0 0"/><path d="m130 232c5.511719 0 10-4.488281 10-10s-4.488281-10-10-10-10 4.488281-10 10 4.488281 10 10 10zm0 0"/></svg>